<svg width="77" height="54" viewBox="0 0 77 54" fill="none" xmlns="http://www.w3.org/2000/svg">
<mask id="mask0_3351_976" style="mask-type:luminance" maskUnits="userSpaceOnUse" x="0" y="0" width="77" height="54">
<path d="M76.1667 0.399902H0.166656V53.5999H76.1667V0.399902Z" fill="white"/>
</mask>
<g mask="url(#mask0_3351_976)">
<path d="M32.3091 21.3495C34.4293 21.3495 36.1346 19.6597 36.1346 17.5386C36.1397 15.4175 34.4344 13.7023 32.3192 13.6973C32.3141 13.6973 32.3141 13.6973 32.3091 13.6973C30.1939 13.6973 28.5088 15.4124 28.5088 17.5335C28.4936 19.6242 30.1787 21.3342 32.2635 21.3444C32.2787 21.3495 32.2939 21.3495 32.3091 21.3495Z" fill="#0F2B92"/>
<path d="M43.1783 36.2563C41.6197 36.2563 40.218 37.2306 39.6564 38.6109H46.6749C46.0626 37.256 44.7622 36.2563 43.1783 36.2563Z" fill="#0F2B92"/>
<path d="M63.4348 43.9339C65.555 43.9339 67.2603 42.2442 67.2603 40.1231C67.2654 38.002 65.55 36.2817 63.4348 36.2817C61.3196 36.2817 59.6092 38.002 59.6092 40.118C59.6092 42.2442 61.3196 43.9339 63.4348 43.9339Z" fill="#0F2B92"/>
<path d="M68.6471 15.4956C67.5389 15.4956 66.6433 16.3938 66.6433 17.5C66.6433 17.5051 66.6433 17.5101 66.6433 17.5152C66.6382 18.6164 67.5238 19.5145 68.6218 19.5247C68.632 19.5247 68.637 19.5247 68.6471 19.5247C69.7553 19.5298 70.6611 18.6316 70.6662 17.5203C70.6712 16.409 69.7756 15.5007 68.6674 15.4956C68.6573 15.4956 68.6522 15.4956 68.6471 15.4956Z" fill="#0F2B92"/>
<path d="M51.592 10.0666C51.592 9.66575 51.5212 9.27503 51.3795 8.89952C52.8521 6.04263 51.7337 2.52608 48.8848 1.04943C48.06 0.623176 47.1441 0.399902 46.2181 0.399902C43.5564 0.399902 41.3147 2.20639 40.6265 4.65732C40.5506 4.65225 40.4747 4.64717 40.3988 4.64717H36.138C35.0045 4.64717 33.952 5.2358 33.3599 6.20501C33.0158 6.17457 32.6616 6.15935 32.3074 6.15935C30.0202 6.15935 27.7835 6.85454 25.9011 8.16373C25.7443 8.01658 25.5773 7.88972 25.3951 7.773L21.7213 5.4946C20.1931 4.54569 18.1842 5.01761 17.238 6.55515L13.5541 12.5277L9.87023 6.55515C9.27818 5.59101 8.22564 5.00238 7.0972 5.00746C6.49503 5.00746 5.90298 5.17491 5.38684 5.4946L1.71309 7.773C0.979353 8.2297 0.453086 8.96041 0.255736 9.80276C0.058386 10.6451 0.200073 11.5331 0.655496 12.274L10.7203 28.5933L7.85624 29.872C6.22178 30.6027 5.48298 32.5259 6.20154 34.17L13.4478 50.7227C13.969 51.9101 15.138 52.6764 16.4334 52.6764C17.7288 52.6764 18.8977 51.9051 19.4189 50.7176L21.7416 45.3997L24.0642 50.7176C24.5855 51.9051 25.7544 52.6764 27.0498 52.6764C28.3452 52.6764 29.5141 51.9101 30.0354 50.7227L32.3125 45.5164C33.7192 50.1848 38.0457 53.5999 43.1515 53.5999H43.7841C45.5855 53.5999 47.0429 52.1385 47.0429 50.332V46.1558H49.1378C49.2036 46.9118 49.5325 47.6172 50.0689 48.1551L53.0292 51.149C53.6414 51.768 54.4713 52.1131 55.3366 52.1182H55.3417C56.207 52.1182 57.0369 51.7731 57.6441 51.1591L58.4689 50.332C60.0123 51.0881 61.7126 51.4788 63.428 51.4737C69.6825 51.4737 74.7731 46.3689 74.7731 40.0969C74.7731 33.8351 69.6825 28.7455 63.428 28.7455C63.2357 28.7455 63.0485 28.7506 62.8612 28.7607V27.3044C62.8612 27.2891 62.8612 27.2688 62.8562 27.2536C64.3894 27.1877 65.6697 26.0561 65.9227 24.5388C66.7576 24.8636 67.6432 25.0361 68.5388 25.0513C69.1258 25.5588 69.8798 25.8328 70.654 25.8328H72.9008C74.7022 25.8328 76.1596 24.3714 76.1596 22.5649V12.4465C76.1596 10.64 74.7022 9.17861 72.9008 9.17861H70.654C69.8697 9.17861 69.1157 9.4577 68.5237 9.97529C67.2029 9.99559 65.9075 10.366 64.7791 11.0511C64.1972 10.569 63.4685 10.3102 62.7145 10.3102H60.4677C59.901 10.3102 59.3444 10.4574 58.8535 10.7365L57.3709 8.94012C56.2222 7.54973 54.1677 7.3569 52.7812 8.50879C52.0323 9.12787 51.6022 10.0514 51.6022 11.0257L51.592 10.0666ZM54.866 11.0358L60.4728 17.8152V13.5832H62.249C60.6145 16.2523 60.8017 19.6572 62.7196 22.1285V23.9908L57.1128 17.2114V21.4434H54.866V11.0358ZM48.3332 24.9803H44.0725V10.0616H48.3332V24.9803ZM46.2181 3.66782C47.6299 3.66782 48.7684 4.81463 48.7684 6.22531C48.7684 7.636 47.6248 8.78281 46.2181 8.78281C44.8113 8.78281 43.6677 7.636 43.6677 6.22531C43.6626 4.8197 44.7961 3.67289 46.2029 3.66782C46.2029 3.66782 46.2079 3.66782 46.2181 3.66782ZM36.138 10.4218V7.91509H40.3988V27.1065H36.138V24.6251C34.9742 25.2898 33.6534 25.6349 32.3125 25.6247C27.8696 25.6349 24.2565 22.027 24.2515 17.5717C24.2515 17.5615 24.2515 17.5514 24.2515 17.5412C24.2515 16.8156 24.3476 16.0899 24.5399 15.3897L26.4577 12.274C26.5741 12.0812 26.6703 11.8782 26.7462 11.6701C28.244 10.229 30.2378 9.42726 32.3125 9.43233C33.6484 9.41203 34.9691 9.75709 36.138 10.4218ZM7.0972 8.27537L13.5541 18.7388L20.011 8.27537L23.4823 10.4269C22.6271 11.4976 21.9693 12.7155 21.5442 14.0247L13.5541 26.9796L3.42346 10.5487L7.0972 8.27537ZM27.0447 49.4084L21.7416 37.2553L16.4334 49.4084L9.18709 32.8558L13.0126 31.1406L16.4334 38.9704L21.7416 26.8172L27.0498 38.9704L30.4705 31.1406L34.2961 32.8558L34.119 33.2668C33.0513 34.6775 32.3327 36.3266 32.019 38.0672L27.0447 49.4084ZM39.3968 42.8828C39.7004 44.6994 41.3096 46.0796 43.1465 46.0796H43.7841V50.332H43.1465C38.7036 50.3421 35.0905 46.7342 35.0855 42.2789C35.0855 42.2688 35.0855 42.2586 35.0855 42.2485V40.0969C35.0855 39.7316 35.1108 39.3662 35.1614 39.0009L36.9477 34.916C38.4809 33.0689 40.753 32.0033 43.1465 32.0083C47.6096 32.0083 51.2328 35.6162 51.2328 40.0919V42.3804L50.7318 42.8828H39.3968ZM63.4331 32.0083C67.8962 32.0083 71.5193 35.6162 71.5193 40.0919C71.5244 44.5624 67.9164 48.1957 63.4533 48.2007C61.4595 48.2058 59.5316 47.465 58.0439 46.1304L55.3366 48.8452L52.4371 45.9173C53.3328 45.557 54.021 44.8212 54.3195 43.9027L55.3316 42.8878V27.2993H59.5923V33.0029C60.7764 32.3432 62.0921 31.9982 63.4331 32.0083ZM72.9059 22.5598H70.6591V21.2506C70.0468 21.6007 69.3485 21.7834 68.6401 21.7783C67.6685 21.7783 66.7273 21.4485 65.9682 20.8345V14.1921C66.7222 13.5781 67.6634 13.2381 68.6401 13.2432C69.3485 13.2381 70.0417 13.4208 70.6591 13.7709V12.4516H72.9059V22.5598Z" fill="#0F2B92"/>
</g>
<path d="M13.5559 18.7368L20.0128 8.27344L23.6865 10.5518L13.5559 26.9777L3.42523 10.5518L7.09898 8.27344L13.5559 18.7368Z" fill="#FFAC2D"/>
<mask id="mask1_3351_976" style="mask-type:luminance" maskUnits="userSpaceOnUse" x="0" y="0" width="77" height="54">
<path d="M76.1667 0.399902H0.166656V53.5999H76.1667V0.399902Z" fill="white"/>
</mask>
<g mask="url(#mask1_3351_976)">
<path d="M40.399 7.91455V27.1059H36.1382V24.6245C34.9744 25.2893 33.6537 25.6344 32.3127 25.6242C27.8647 25.6293 24.2568 22.0214 24.2466 17.5661C24.2466 17.5559 24.2466 17.5458 24.2466 17.5356C24.2466 13.06 27.8445 9.42672 32.3076 9.42672C33.6486 9.41657 34.9693 9.76163 36.1332 10.4264V7.91455H40.399ZM28.5074 17.5356C28.4973 19.6263 30.1773 21.3363 32.2621 21.3465C32.2773 21.3465 32.2925 21.3465 32.3076 21.3465C34.4279 21.3465 36.1332 19.6567 36.1332 17.5356C36.1382 15.4196 34.4279 13.6994 32.3178 13.6994C32.3127 13.6994 32.3127 13.6994 32.3076 13.6994C30.1924 13.6994 28.5074 15.4094 28.5074 17.5356Z" fill="#FFAC2D"/>
<path d="M46.2164 8.78296C44.8147 8.78804 43.6711 7.65137 43.666 6.24576C43.666 6.24069 43.666 6.23561 43.666 6.23054C43.6509 4.82493 44.7742 3.68319 46.1658 3.66797C46.181 3.66797 46.2012 3.66797 46.2164 3.66797C47.6232 3.66797 48.7668 4.81478 48.7668 6.22547C48.7668 7.64122 47.6282 8.78296 46.2164 8.78296ZM48.3367 24.9804H44.0759V10.0617H48.3367V24.9804Z" fill="#FFAC2D"/>
</g>
<path d="M16.4345 38.9686L21.7427 26.8154L27.0509 38.9686L30.4717 31.1388L34.2972 32.854L27.0509 49.4067L21.7427 37.2535L16.4345 49.4067L9.18823 32.854L13.0138 31.1388L16.4345 38.9686Z" fill="#FFAC2D"/>
<mask id="mask2_3351_976" style="mask-type:luminance" maskUnits="userSpaceOnUse" x="0" y="0" width="77" height="54">
<path d="M76.1667 0.399902H0.166656V53.5999H76.1667V0.399902Z" fill="white"/>
</mask>
<g mask="url(#mask2_3351_976)">
<path d="M43.1482 46.0806H43.7858V50.3279H43.1482C38.7053 50.338 35.0973 46.7301 35.0872 42.2748C35.0872 42.2646 35.0872 42.2545 35.0872 42.2443V40.0928C35.0771 35.6375 38.6749 32.0194 43.1178 32.0093C43.1279 32.0093 43.138 32.0093 43.1482 32.0093C47.6113 32.0093 51.2345 35.6172 51.2345 40.0928V42.8837H39.3935C39.7072 44.7004 41.3113 46.0806 43.1482 46.0806ZM43.1735 36.2565C41.6149 36.2565 40.2132 37.2308 39.6515 38.6111H46.6701C46.0578 37.2562 44.7573 36.2565 43.1735 36.2565Z" fill="#FFAC2D"/>
<path d="M63.435 32.0103C67.8982 32.0103 71.5213 35.6182 71.5213 40.0938C71.5264 44.5694 67.9184 48.1976 63.4553 48.2027C61.4615 48.2078 59.5336 47.4669 58.0459 46.1324L55.3437 48.8472L52.3885 45.8533L55.3487 42.8847V27.3013H59.6095V33.0049C60.7733 32.3452 62.0941 32.0002 63.435 32.0103ZM59.6095 40.1192C59.6095 42.2454 61.3198 43.9301 63.435 43.9301C65.5502 43.9301 67.2606 42.2403 67.2606 40.1192C67.2606 37.9981 65.5452 36.283 63.435 36.283C61.3249 36.283 59.6095 38.0032 59.6095 40.1192Z" fill="#FFAC2D"/>
</g>
<path d="M62.7157 23.9877L57.114 17.2083V21.4403H54.8672V11.0327L60.474 17.8121V13.5801H62.7207L62.7157 23.9877Z" fill="#FF611E"/>
<mask id="mask3_3351_976" style="mask-type:luminance" maskUnits="userSpaceOnUse" x="0" y="0" width="77" height="54">
<path d="M76.1667 0.399902H0.166656V53.5999H76.1667V0.399902Z" fill="white"/>
</mask>
<g mask="url(#mask3_3351_976)">
<path d="M72.908 12.4497V22.5579H70.6612V21.2487C70.0489 21.5988 69.3506 21.7815 68.6472 21.7765C66.2993 21.7765 64.3916 19.8685 64.3916 17.5089C64.3916 15.1544 66.2942 13.2413 68.6472 13.2413C69.3557 13.2362 70.0489 13.4189 70.6612 13.7691V12.4497H72.908ZM66.6434 17.519C66.6484 18.6303 67.5542 19.5285 68.6624 19.5234C69.7656 19.5183 70.6562 18.6253 70.6612 17.519C70.6663 16.4077 69.7706 15.4994 68.6624 15.4943C67.5542 15.4893 66.6484 16.3874 66.6434 17.4987C66.6434 17.5038 66.6434 17.5089 66.6434 17.519Z" fill="#FF611E"/>
</g>
</svg>
